<?xml version="1.0" encoding="UTF-8"?>
<svg width="24px" height="24px" viewBox="0 0 24 24" version="1.1" xmlns="http://www.w3.org/2000/svg" xmlns:xlink="http://www.w3.org/1999/xlink">
    <!-- Generator: Sketch 53.2 (72643) - https://sketchapp.com -->
    <title>Icons/Map/icn-position</title>
    <desc>Created with Sketch.</desc>
    <defs>
        <path d="M12,20 C7.581722,20 4,16.418278 4,12 C4,7.581722 7.581722,4 12,4 C16.418278,4 20,7.581722 20,12 C20,16.418278 16.418278,20 12,20 Z M12,16 C14.209139,16 16,14.209139 16,12 C16,9.790861 14.209139,8 12,8 C9.790861,8 8,9.790861 8,12 C8,14.209139 9.790861,16 12,16 Z" id="path-1"></path>
    </defs>
    <g id="Icons/Map/icn-position" stroke="none" stroke-width="1" fill="none" fill-rule="evenodd">
        <polygon id="base" points="0 0 24 0 24 24 0 24"></polygon>
        <circle id="white-bg-oval" fill="#FFFFFF" cx="12" cy="12" r="8"></circle>
        <mask id="mask-2" fill="white">
            <use xlink:href="#path-1"></use>
        </mask>
        <use id="Icon" fill="#1B1B1B" xlink:href="#path-1"></use>
    </g>
</svg>